<svg width="378" height="54" viewBox="0 0 378 54" fill="none" xmlns="http://www.w3.org/2000/svg">
<path d="M19.58 10.7175C19.58 5.30642 15.1969 0.919922 9.79 0.919922C4.38313 0.919922 0 5.30642 0 10.7175V43.028C0 48.439 4.38313 52.8255 9.79 52.8255C15.1969 52.8255 19.58 48.439 19.58 43.028V10.7175Z" fill="#EE7959"/>
<path d="M43.7995 10.7175C43.7995 5.30642 39.4163 0.919922 34.0095 0.919922C28.6026 0.919922 24.2195 5.30642 24.2195 10.7175V43.028C24.2195 48.439 28.6026 52.8255 34.0095 52.8255C39.4163 52.8255 43.7995 48.439 43.7995 43.028V10.7175Z" fill="#EE7959"/>
<path d="M68.0192 10.7175C68.0192 5.30642 63.6361 0.919922 58.2292 0.919922C52.8223 0.919922 48.4392 5.30642 48.4392 10.7175V43.028C48.4392 48.439 52.8223 52.8255 58.2292 52.8255C63.6361 52.8255 68.0192 48.439 68.0192 43.028V10.7175Z" fill="#EE7959"/>
<path d="M68.0192 10.7175C68.0192 5.30642 63.6361 0.919922 58.2292 0.919922C52.8223 0.919922 48.4392 5.30642 48.4392 10.7175V43.028C48.4392 48.439 52.8223 52.8255 58.2292 52.8255C63.6361 52.8255 68.0192 48.439 68.0192 43.028V10.7175Z" fill="#EE7959"/>
<path d="M107.435 51.569C106.009 51.569 104.54 51.1643 103.242 50.3337L77.1921 33.5075C75 32.0804 73.6592 29.6524 73.6592 27.0326C73.6592 24.4128 74.9574 21.9847 77.1495 20.5364L103.221 3.43332C106.796 1.09043 111.585 2.09149 113.926 5.64841C116.267 9.22664 115.267 14.0189 111.712 16.3618L95.5803 26.9687L111.67 37.3626C115.245 39.6842 116.288 44.4551 113.968 48.0547C112.5 50.355 110.01 51.5903 107.477 51.5903L107.435 51.569Z" fill="#EE7959"/>
<path d="M196.646 28.7324C191.24 28.562 186.77 27.8166 183.067 26.6664C197.156 19.8934 196.199 7.41215 196.199 6.53889V5.79343C196.199 5.34615 195.688 4.98406 195.071 4.98406H157.528C156.996 4.98406 156.57 5.23965 156.464 5.60174C156.485 4.2386 156.464 3.15235 156.464 2.55598C156.464 2.2365 156.805 1.98091 157.252 1.98091H196.199V1.19285C196.199 0.766868 195.709 0.404785 195.113 0.404785H148.781C148.185 0.404785 147.696 0.745569 147.696 1.19285V1.98091C147.696 1.98091 147.93 24.9412 139.672 28.9667C138.48 29.5418 139.778 30.9901 141.226 30.9901H145.248C154.442 29.8613 156.166 14.7603 156.443 6.81578C156.421 8.69009 156.741 20.4897 169.127 26.9007C164.509 28.2851 158.741 29.1158 151.484 29.0306C150.441 29.0306 150.313 30.1595 151.314 30.3511L159.486 30.9901C159.656 30.9901 159.827 30.9901 159.976 30.9901C166.105 30.9901 171.213 30.3511 175.448 29.3288C179.173 30.3511 183.621 30.9688 188.941 30.9901C189.154 30.9901 189.388 30.9901 189.601 30.9475L196.837 30.2021C197.901 29.9465 197.752 28.775 196.624 28.7324H196.646ZM166.105 6.53889H186.451C186.941 6.53889 187.345 6.83708 187.324 7.19916C187.175 9.56334 186.026 17.7847 176.917 23.429C176.597 23.6207 176.108 23.6207 175.789 23.429C166.744 17.8486 165.424 9.58464 165.211 7.19916C165.19 6.83708 165.573 6.53889 166.084 6.53889H166.105Z" fill="#EE7959"/>
<path d="M228.144 2.02345H219.908C219.716 2.02345 219.567 1.91695 219.567 1.78916V1.0437C219.567 0.702912 219.184 0.426025 218.716 0.426025H211.671C211.203 0.426025 210.82 0.702912 210.82 1.0437V1.78916C210.82 1.91695 210.671 2.02345 210.479 2.02345H202.243C201.753 2.02345 201.37 2.30034 201.37 2.64112V3.57827H210.479C210.671 3.57827 210.82 3.68477 210.82 3.81256V6.60273C210.82 6.73052 210.671 6.83702 210.479 6.83702H202.477C201.881 6.83702 201.392 7.1778 201.392 7.62508L201.349 8.41314V21.1073H201.392V22.6622H210.501C210.692 22.6622 210.841 22.7687 210.841 22.8964V25.6866C210.841 25.8144 210.692 25.9209 210.501 25.9209H201.902C201.307 25.9209 200.817 26.2617 200.817 26.709V27.497H210.501C210.692 27.497 210.841 27.6035 210.841 27.7313V30.3298C210.841 30.6706 211.224 30.9475 211.692 30.9475H218.737C219.205 30.9475 219.588 30.6706 219.588 30.3298V27.7313C219.588 27.6035 219.737 27.497 219.929 27.497H229.038V26.709C229.038 26.283 228.548 25.9209 227.952 25.9209H219.95C219.759 25.9209 219.61 25.8144 219.61 25.6866V22.8964C219.61 22.7687 219.759 22.6622 219.95 22.6622H229.059V7.62508C229.059 7.1991 228.57 6.83702 227.974 6.83702H219.971C219.78 6.83702 219.631 6.73052 219.631 6.60273V3.81256C219.631 3.68477 219.78 3.57827 219.971 3.57827H229.08V2.64112C229.08 2.30034 228.697 2.02345 228.208 2.02345H228.144ZM210.82 8.66873V13.7592C210.82 13.887 210.671 13.9935 210.479 13.9935H210.437C210.245 13.9935 210.096 13.887 210.096 13.7592V8.66873C210.096 8.54094 210.245 8.43444 210.437 8.43444H210.479C210.671 8.43444 210.82 8.54094 210.82 8.66873ZM210.096 20.873V15.7826C210.096 15.6548 210.245 15.5483 210.437 15.5483H210.479C210.671 15.5483 210.82 15.6548 210.82 15.7826V20.873C210.82 21.0008 210.671 21.1073 210.479 21.1073H210.437C210.245 21.1073 210.096 21.0008 210.096 20.873ZM219.908 21.1073C219.716 21.1073 219.567 21.0008 219.567 20.873V15.7826C219.567 15.6548 219.716 15.5483 219.908 15.5483C220.099 15.5483 220.248 15.6548 220.248 15.7826V20.873C220.248 21.0008 220.099 21.1073 219.908 21.1073ZM220.248 8.64743V13.7379C220.248 13.8657 220.099 13.9722 219.908 13.9722C219.716 13.9722 219.567 13.8657 219.567 13.7379V8.64743C219.567 8.51964 219.716 8.41314 219.908 8.41314C220.099 8.41314 220.248 8.51964 220.248 8.64743Z" fill="#EE7959"/>
<path d="M258.578 22.6835V21.8954C258.578 21.4694 258.089 21.1073 257.493 21.1073H248.894C248.703 21.1073 248.554 21.0008 248.554 20.873V20.511C248.554 20.3832 248.703 20.2767 248.894 20.2767H258.003V5.2183C258.003 4.79232 257.514 4.43023 256.918 4.43023H248.916C248.724 4.43023 248.575 4.32374 248.575 4.19594V3.83386C248.575 3.70607 248.724 3.59957 248.916 3.59957H258.003V2.81151C258.003 2.38553 257.514 2.02345 256.918 2.02345H248.916C248.724 2.02345 248.575 1.91695 248.575 1.78916V1.0437C248.575 0.702912 248.192 0.426025 247.724 0.426025H240.679C240.211 0.426025 239.828 0.702912 239.828 1.0437V1.78916C239.828 1.91695 239.679 2.02345 239.488 2.02345H231.464C230.868 2.02345 230.379 2.36423 230.379 2.81151V3.59957H239.488C239.679 3.59957 239.828 3.70607 239.828 3.83386V4.19594C239.828 4.32374 239.679 4.43023 239.488 4.43023H231.485C230.889 4.43023 230.4 4.77102 230.4 5.2183L230.357 6.00636V18.7005H230.4V20.2554H239.509C239.7 20.2554 239.849 20.3619 239.849 20.4897V20.8517C239.849 20.9795 239.7 21.086 239.509 21.086H230.911C230.315 21.086 229.825 21.4268 229.825 21.8741V22.6622H248.256C248.448 22.6622 248.596 22.7687 248.596 22.8964V24.217C248.596 24.3448 248.448 24.4513 248.256 24.4513H230.889C230.293 24.4513 229.804 24.7921 229.804 25.2393V26.0274H248.256C248.448 26.0274 248.596 26.1339 248.596 26.2617V28.1999C248.596 28.3277 248.448 28.4342 248.256 28.4555C237.806 28.4981 230.528 26.7303 230.528 26.7303C229.91 26.6238 229.761 26.9433 230.081 27.4757C230.081 27.4757 232.4 30.9688 239.849 30.9688H253.002C255.407 30.9688 257.365 29.563 257.365 27.8165V26.1339C257.365 26.1339 257.429 26.0274 257.514 26.0274H258.599V25.2393C258.599 24.8134 258.11 24.4513 257.514 24.4513C257.514 24.4513 257.365 24.4087 257.365 24.3448V22.7687C257.365 22.7687 257.429 22.6622 257.514 22.6622H258.621L258.578 22.6835ZM248.894 18.7005C248.703 18.7005 248.554 18.5941 248.554 18.4663V13.3758C248.554 13.248 248.703 13.1415 248.894 13.1415C249.086 13.1415 249.235 13.248 249.235 13.3758V18.4663C249.235 18.5941 249.086 18.7005 248.894 18.7005ZM249.235 6.24065V11.3311C249.235 11.4589 249.086 11.5654 248.894 11.5654C248.703 11.5654 248.554 11.4589 248.554 11.3311V6.24065C248.554 6.11285 248.703 6.00636 248.894 6.00636C249.086 6.00636 249.235 6.11285 249.235 6.24065ZM239.807 6.24065V11.3311C239.807 11.4589 239.658 11.5654 239.466 11.5654H239.424C239.232 11.5654 239.083 11.4589 239.083 11.3311V6.24065C239.083 6.11285 239.232 6.00636 239.424 6.00636H239.466C239.658 6.00636 239.807 6.11285 239.807 6.24065ZM239.083 18.445V13.3545C239.083 13.2267 239.232 13.1202 239.424 13.1202H239.466C239.658 13.1202 239.807 13.2267 239.807 13.3545V18.445C239.807 18.5728 239.658 18.6792 239.466 18.6792H239.424C239.232 18.6792 239.083 18.5728 239.083 18.445Z" fill="#EE7959"/>
<path d="M338.899 13.0989H320.383C319.808 13.0989 319.34 13.4397 319.34 13.8443V31.0539H322.298V31.0965H335.515V31.0539H339.92V13.8656C339.92 13.461 339.452 13.1202 338.877 13.1202L338.899 13.0989ZM331.173 15.2927V28.924C331.173 29.2648 330.79 29.5417 330.3 29.5417H328.981C328.491 29.5417 328.108 29.2648 328.108 28.924V15.2927C328.108 14.9519 328.491 14.675 328.981 14.675H330.3C330.79 14.675 331.173 14.9519 331.173 15.2927Z" fill="#EE7959"/>
<path d="M339.154 1.85292H338.43C337.941 1.85292 337.558 1.57603 337.558 1.23525V0.873168C337.558 0.553683 337.196 0.298096 336.77 0.298096H322.468C322.043 0.298096 321.681 0.553683 321.681 0.873168V1.23525C321.681 1.57603 321.298 1.85292 320.808 1.85292H320.127C319.702 1.85292 319.34 2.10851 319.34 2.40669V3.40775H339.941V2.40669C339.941 2.08721 339.601 1.85292 339.154 1.85292Z" fill="#EE7959"/>
<path d="M377.399 1.85292V1.04356C377.399 0.638879 376.931 0.298096 376.356 0.298096H341.58C341.005 0.298096 340.537 0.638879 340.537 1.04356V1.85292H346.22C346.731 1.85292 347.114 2.17241 347.05 2.53449L346.539 5.83583C346.496 6.13401 346.135 6.3683 345.688 6.3683H342.687C342.219 6.3683 341.814 6.66649 341.814 7.04987V7.92313H345.262C345.773 7.92313 346.156 8.24261 346.092 8.6047L344.985 15.5908C344.943 15.8889 344.581 16.1232 344.155 16.1232H341.559C340.984 16.1232 340.516 16.464 340.516 16.8687V17.6781H377.377V16.8687C377.377 16.464 376.909 16.1232 376.335 16.1232C375.824 16.1232 375.441 15.8037 375.505 15.4417L376.611 8.02962L376.803 7.15636C376.803 6.77298 376.441 6.4748 375.973 6.4748L356.137 6.4109C355.627 6.4109 355.244 6.09142 355.307 5.72933L355.839 2.3854C355.882 2.08721 356.244 1.85292 356.669 1.85292H377.377H377.399ZM367.822 8.66859L366.736 15.5695C366.694 15.8676 366.332 16.1019 365.906 16.1019H354.648C354.137 16.1019 353.754 15.7824 353.818 15.4204L354.903 8.4769C354.946 8.17872 355.307 7.94443 355.754 7.94443L367.013 7.98702C367.524 7.98702 367.907 8.30651 367.843 8.66859H367.822Z" fill="#EE7959"/>
<path d="M337.558 6.17663C337.558 5.85715 337.196 5.60156 336.77 5.60156H322.468C322.043 5.60156 321.681 5.85715 321.681 6.17663V7.17769H337.558V6.17663Z" fill="#EE7959"/>
<path d="M321.681 10.9262H337.558V9.92517C337.558 9.60569 337.196 9.3501 336.77 9.3501H322.468C322.043 9.3501 321.681 9.60569 321.681 9.92517V10.9262Z" fill="#EE7959"/>
<path d="M376.548 19.1477H341.389C340.92 19.1477 340.537 19.4246 340.537 19.7654V31.0751H344.198V31.1177H373.653V31.0751H377.399V19.7654C377.399 19.4246 377.016 19.1477 376.548 19.1477ZM368.63 21.3415V28.9239C368.63 29.2647 368.247 29.5416 367.758 29.5416H350.157C349.668 29.5416 349.284 29.2647 349.284 28.9239V21.3415C349.284 21.0007 349.668 20.7238 350.157 20.7238H367.758C368.247 20.7238 368.63 21.0007 368.63 21.3415Z" fill="#EE7959"/>
<path d="M290.012 2.44932H275.498C275.583 2.08724 275.647 1.72516 275.689 1.38437C275.796 0.638911 274.987 0.0212402 273.944 0.0212402H268.687C267.772 0.0212402 267.027 0.532416 266.942 1.17138C266.389 6.21924 262.43 11.7996 260.77 13.0136C260.174 13.4609 260.685 14.0786 261.536 14.0786C268.432 14.0786 273.22 8.94551 275.008 4.00415H282.308C282.308 8.79642 281.606 12.6728 280.478 15.8464C276.732 14.036 274.284 12.2469 273.603 11.0754C273.284 10.5216 272.263 10.6068 271.943 11.1606C269.368 15.463 272.539 19.0199 277.37 21.661C272.475 28.072 265.154 29.4351 261.111 30.0102C259.748 30.2019 261.26 31.3946 262.643 31.3946C290.481 31.3946 291.098 11.544 291.098 4.00415V3.21609C291.098 2.79011 290.608 2.42802 290.012 2.42802V2.44932Z" fill="#EE7959"/>
<path d="M318.957 28.6471C303.016 21.1286 301.228 7.88062 301.058 3.74862V1.25664C301.058 0.553773 300.271 0 299.313 0H294.035C293.077 0 292.29 0.553773 292.29 1.25664V30.1168C292.29 30.8196 293.077 31.3734 294.035 31.3734H299.313C300.271 31.3734 301.058 30.8196 301.058 30.1168V22.1722C305.102 26.3042 310.55 29.7973 317.467 29.7973C318.701 29.7973 319.978 29.137 318.957 28.6471Z" fill="#EE7959"/>
<path d="M366.63 41.2562V52.2465C366.63 53.0581 367.287 53.7161 368.098 53.7161H372.802C373.613 53.7161 374.27 53.0581 374.27 52.2465V41.2562C374.27 40.4445 373.613 39.7865 372.802 39.7865H368.098C367.287 39.7865 366.63 40.4445 366.63 41.2562Z" fill="#EE7959"/>
<path d="M375.93 42.9387H364.948C364.137 42.9387 363.48 43.5967 363.48 44.4084V49.1154C363.48 49.9271 364.137 50.5851 364.948 50.5851H375.93C376.741 50.5851 377.399 49.9271 377.399 49.1154V44.4084C377.399 43.5967 376.741 42.9387 375.93 42.9387Z" fill="#EE7959"/>
<path d="M163.636 39.5095H159.103C158.294 39.5095 157.656 40.1485 157.656 40.9579V41.1708C157.507 43.2368 156.698 46.8364 153.357 49.7969C153.08 50.0312 152.676 50.0312 152.399 49.7969C149.036 46.8577 148.249 43.2368 148.1 41.1708V40.9579C148.1 40.1485 147.462 39.5095 146.653 39.5095H142.12C141.439 39.5095 140.906 40.0633 140.906 40.7236V52.1824C140.906 52.864 141.46 53.3965 142.12 53.3965H146.887C147.568 53.3965 148.1 52.8427 148.1 52.1824V51.0962C148.717 51.4157 149.356 51.7138 149.994 51.9907C149.654 52.1611 149.313 52.3102 148.951 52.4593C148.653 52.5871 148.653 53.0131 148.951 53.1409C149.994 53.5456 151.378 53.4391 152.889 53.0344C154.4 53.4391 155.783 53.5668 156.826 53.1409C157.124 53.0131 157.124 52.5871 156.826 52.4806C156.464 52.3315 156.124 52.1611 155.783 52.012C156.422 51.7351 157.06 51.4369 157.677 51.1175V52.2037C157.677 52.8853 158.231 53.4178 158.89 53.4178H163.658C164.339 53.4178 164.871 52.864 164.871 52.2037V40.7449C164.871 40.0633 164.317 39.5308 163.658 39.5308L163.636 39.5095Z" fill="#EE7959"/>
<path d="M183.706 52.2676C181.407 52.2676 181.152 48.2847 181.152 48.2847C183.472 46.1974 183.387 42.9174 183.983 40.1059C184.153 39.3604 183.238 38.9557 182.706 39.4882C178.556 43.6415 173.703 43.1303 173.703 43.1303V41.2347C173.703 40.4254 173.065 39.7864 172.256 39.7864H167.935C167.127 39.7864 166.488 40.4254 166.488 41.2347V52.2463C166.488 53.0557 167.127 53.6946 167.935 53.6946H173.703V50.3507C174.15 50.3507 174.554 50.3294 174.98 50.3081L174.874 50.3507C176.747 54.291 174.937 53.7159 183.77 53.7159C184.536 53.7159 184.472 52.2889 183.685 52.2889L183.706 52.2676Z" fill="#EE7959"/>
<path d="M213.885 39.7651H198.582C197.774 39.7651 197.135 40.4041 197.135 41.2135V52.225C197.135 53.0344 197.774 53.6734 198.582 53.6734H204.35V50.3294H205.52C207.393 54.2484 205.584 53.6734 214.417 53.6734C215.183 53.6734 215.119 52.2463 214.331 52.2463C213.203 52.2463 212.586 51.2879 212.224 50.3294H213.927C214.502 50.3294 214.949 49.8609 214.949 49.3071V40.8514C214.949 40.255 214.459 39.7651 213.863 39.7651H213.885ZM207.755 47.4967H204.35V46.9855H207.755V47.4967Z" fill="#EE7959"/>
<path d="M231.996 39.7651H217.269C216.46 39.7651 215.821 40.4041 215.821 41.2135V53.6734H232.613C233.188 53.6734 233.635 53.2048 233.635 52.651V50.8406H223.015V50.3294H232.592C233.167 50.3294 233.614 49.8609 233.614 49.3071V47.4967H222.994V46.9855H233.614V41.4052C233.614 40.4893 232.869 39.7651 231.975 39.7651H231.996Z" fill="#EE7959"/>
<path d="M291.289 39.7651H275.987C275.178 39.7651 274.54 40.4041 274.54 41.2135V52.225C274.54 53.0344 275.178 53.6734 275.987 53.6734H281.755V50.3294H282.925C284.798 54.2484 282.989 53.6734 291.821 53.6734C292.588 53.6734 292.524 52.2463 291.736 52.2463C290.608 52.2463 289.991 51.2879 289.629 50.3294H291.332C291.907 50.3294 292.353 49.8609 292.353 49.3071V40.8514C292.353 40.255 291.864 39.7651 291.268 39.7651H291.289ZM285.16 47.4967H281.755V46.9855H285.16V47.4967Z" fill="#EE7959"/>
<path d="M272.05 39.7651H257.322C256.514 39.7651 255.875 40.4041 255.875 41.2135V53.6734H272.667C273.242 53.6734 273.689 53.2048 273.689 52.651V50.8406H263.069V50.3294H272.646C273.22 50.3294 273.667 49.8609 273.667 49.3071V47.4967H263.047V46.9855H273.667V41.4052C273.667 40.4893 272.922 39.7651 272.029 39.7651H272.05Z" fill="#EE7959"/>
<path d="M309.635 39.7651H294.716C294.014 39.7651 293.46 40.3402 293.46 41.0218V50.3294H304.08V50.8406H294.503C293.928 50.8406 293.482 51.3092 293.482 51.863V53.6734H311.295V47.4967H300.675V46.9855H311.295V41.4052C311.295 40.4893 310.55 39.7651 309.656 39.7651H309.635Z" fill="#EE7959"/>
<path d="M350.817 50.8406H341.687V41.2135C341.687 40.4041 341.048 39.7651 340.239 39.7651H335.919C335.11 39.7651 334.472 40.4041 334.472 41.2135V52.225C334.472 53.0344 335.11 53.6734 335.919 53.6734H351.37C351.881 53.6734 352.307 53.2474 352.307 52.7362V52.3102C352.307 51.5009 351.647 50.8193 350.817 50.8193V50.8406Z" fill="#EE7959"/>
<path d="M254.598 39.8076C245.979 39.8076 246.17 39.1473 244.659 44.4082C244.595 44.5999 244.489 44.7277 244.489 44.9193C244.489 44.7277 244.361 44.5999 244.319 44.4082C242.808 39.1473 243.02 39.8076 234.38 39.8076C233.613 39.8076 233.677 41.2346 234.465 41.2346C235.933 41.2346 234.869 47.1344 237.529 50.6701C239.892 53.8223 244.51 53.7158 244.51 53.7158C244.51 53.7158 249.128 53.8223 251.491 50.6701C254.13 47.1344 253.087 41.2346 254.556 41.2346C255.322 41.2346 255.407 39.8076 254.641 39.8076H254.598Z" fill="#EE7959"/>
<path d="M332.876 52.2463C331.407 52.2463 332.471 46.3465 329.811 42.8108C327.448 39.6586 322.83 39.7651 322.83 39.7651C322.83 39.7651 318.212 39.6586 315.849 42.8108C313.21 46.3465 314.253 52.2463 312.785 52.2463C312.019 52.2463 311.933 53.6733 312.7 53.6733C321.319 53.6733 321.128 54.3336 322.639 49.0727C322.702 48.881 322.809 48.7532 322.809 48.5616C322.809 48.7532 322.937 48.881 322.979 49.0727C324.49 54.3336 324.277 53.6733 332.918 53.6733C333.684 53.6733 333.62 52.2463 332.833 52.2463H332.876Z" fill="#EE7959"/>
</svg>
