<svg width="52" height="30" viewBox="0 0 52 30" fill="none" xmlns="http://www.w3.org/2000/svg">
<g clip-path="url(#clip0_1024_602)">
<path d="M14.0341 6.40937C12.7263 6.40937 11.4831 6.72634 10.3941 7.28167L8.96875 5.87526C10.4523 5.00297 12.1774 4.49756 14.0341 4.49756C17.0746 4.49756 19.8001 5.86029 21.6125 8.00172C21.1812 8.54956 20.8309 9.16228 20.5817 9.81869C19.1488 7.76337 16.7445 6.40812 14.0328 6.40812L14.0341 6.40937Z" fill="#362010"/>
<path d="M6.97421 10.6784C6.4114 11.7454 6.09015 12.9646 6.09015 14.2549C6.09015 18.5752 9.64917 22.0931 14.0341 22.0931C14.9396 22.0931 15.8098 21.9421 16.6218 21.6601C16.3663 22.3165 16.1905 23.0153 16.1032 23.7366L16.0956 23.794C15.4304 23.9388 14.7436 24.0112 14.0353 24.0112C8.58298 24.0112 4.15381 19.6335 4.15381 14.2537C4.15381 12.4367 4.65845 10.7208 5.5501 9.27075L6.97548 10.6772L6.97421 10.6784Z" fill="#362010"/>
<path d="M14.0315 10.092C13.7887 10.092 13.5471 10.112 13.3144 10.1594L11.7537 8.61944C12.462 8.33242 13.2272 8.18018 14.0315 8.18018C17.4337 8.18018 20.1972 10.9069 20.1972 14.2538C20.1972 17.6007 17.435 20.3374 14.0315 20.3374C10.6281 20.3374 7.87598 17.6107 7.87598 14.2538C7.87598 13.4601 8.03028 12.7039 8.32117 12.0063L9.88188 13.5462C9.83382 13.7758 9.81358 14.0155 9.81358 14.2538C9.81358 16.55 11.7044 18.4244 14.0303 18.4244C16.3562 18.4244 18.2571 16.55 18.2571 14.2538C18.2571 11.9576 16.3574 10.0932 14.0303 10.0932L14.0315 10.092Z" fill="#362010"/>
<path d="M0.554367 3.96472C0.66693 3.69641 0.932529 3.5217 1.22595 3.5217H3.1547V1.61863C3.1547 1.32786 3.33177 1.06705 3.60369 0.95598C3.87561 0.846163 4.18801 0.906064 4.39669 1.11197L6.38868 3.07744C6.52528 3.21222 6.60116 3.39442 6.60116 3.58535V5.57079L13.145 12.0263C13.4207 11.919 13.7192 11.8553 14.0341 11.8553C15.376 11.8553 16.4675 12.9323 16.4675 14.2563C16.4675 15.5804 15.376 16.6561 14.0341 16.6561C12.6922 16.6561 11.602 15.5804 11.602 14.2563C11.602 13.9456 11.6665 13.6523 11.7753 13.3803L5.23143 6.92353H3.21921C3.0257 6.92353 2.84104 6.84741 2.70445 6.71388L0.712461 4.74591C0.503777 4.54001 0.443068 4.23177 0.554367 3.96347V3.96472Z" fill="#EE7959"/>
<path d="M23.0595 18.3557C23.3074 18.2795 23.5743 18.4243 23.6603 18.6652L26.2328 25.9243L26.8235 21.1797H26.4301C26.1923 21.1797 26.0014 20.9888 26.0014 20.7554V19.4501C26.0014 19.2155 26.1936 19.0271 26.4301 19.0271H28.5853C28.8218 19.0271 29.014 19.2155 29.014 19.4501V20.7554C29.014 20.9888 28.823 21.1797 28.5853 21.1797H28.1919L28.7826 25.9243L31.3525 18.6652C31.4385 18.4231 31.7054 18.2795 31.952 18.3557C34.4727 19.1319 36.4002 21.287 36.7303 23.995L37.0604 27.8187C37.1603 28.983 36.2307 29.9825 35.0469 29.985L19.9697 30C18.7834 30.0013 17.8513 29.0004 17.9512 27.8349L18.2813 23.9963C18.6114 21.287 20.5389 19.1319 23.0608 18.3569L23.0595 18.3557Z" fill="#362010"/>
<path d="M27.4911 17.6032C24.6087 17.6032 22.2727 15.2983 22.2727 12.4556C22.2727 9.6128 24.6087 7.30664 27.4911 7.30664C30.3735 7.30664 32.7095 9.61155 32.7095 12.4556C32.7095 15.2996 30.3735 17.6032 27.4911 17.6032Z" fill="#362010"/>
<path d="M35.6514 15.307L39.3799 12.9559C40.3525 13.223 41.3998 13.3765 42.4988 13.3765C47.4706 13.3765 51.5001 10.3814 51.5001 6.6876C51.5001 2.99376 47.4693 0 42.4988 0C37.5283 0 33.4976 2.99501 33.4976 6.68885C33.4976 8.4609 34.4309 10.0657 35.9436 11.2625L34.842 14.6943C34.689 15.1722 35.2239 15.5765 35.6514 15.307ZM45.4912 6.68885C45.4912 5.91639 46.1261 5.29118 46.9078 5.29118C47.6894 5.29118 48.3243 5.91639 48.3243 6.68885C48.3243 7.46131 47.6894 8.08652 46.9078 8.08652C46.1261 8.08652 45.4912 7.46131 45.4912 6.68885ZM41.081 6.68885C41.081 5.91639 41.7159 5.29118 42.4976 5.29118C43.2792 5.29118 43.9141 5.91639 43.9141 6.68885C43.9141 7.46131 43.2792 8.08652 42.4976 8.08652C41.7159 8.08652 41.081 7.46131 41.081 6.68885ZM36.6708 6.68885C36.6708 5.91639 37.3057 5.29118 38.0874 5.29118C38.869 5.29118 39.5039 5.91639 39.5039 6.68885C39.5039 7.46131 38.869 8.08652 38.0874 8.08652C37.3057 8.08652 36.6708 7.46131 36.6708 6.68885Z" fill="#EE7959"/>
</g>
<defs>
<clipPath id="clip0_1024_602">
<rect width="51" height="30" fill="white" transform="translate(0.5)"/>
</clipPath>
</defs>
</svg>
