<svg width="14" height="16" viewBox="0 0 14 16" fill="none" xmlns="http://www.w3.org/2000/svg">
<path fill-rule="evenodd" clip-rule="evenodd" d="M9.11498 15H4.88498C2.98399 14.9677 1.4688 13.401 1.49998 11.5V8C1.48265 6.42628 2.52309 5.03658 4.03798 4.61V4.15C3.9875 2.46276 5.31283 1.0533 6.99998 1C8.68714 1.0533 10.0125 2.46276 9.96198 4.15V4.61C11.4769 5.03658 12.5173 6.42628 12.5 8V11.5C12.5312 13.401 11.016 14.9677 9.11498 15Z" stroke="#F8F7F0" stroke-width="1.5" stroke-linecap="round" stroke-linejoin="round"/>
<path d="M6.24994 11.5C6.24994 11.9142 6.58573 12.25 6.99994 12.25C7.41415 12.25 7.74994 11.9142 7.74994 11.5H6.24994ZM7.74994 9.74999C7.74994 9.33577 7.41415 8.99999 6.99994 8.99999C6.58573 8.99999 6.24994 9.33577 6.24994 9.74999H7.74994ZM9.76948 5.33487C10.1698 5.44116 10.5805 5.20279 10.6868 4.80245C10.7931 4.4021 10.5547 3.99139 10.1544 3.8851L9.76948 5.33487ZM9.11594 4.49999V5.24999L9.11663 5.24999L9.11594 4.49999ZM4.88494 4.49999L4.88425 5.24999H4.88494V4.49999ZM3.84648 3.8851C3.44614 3.99139 3.20776 4.4021 3.31405 4.80245C3.42035 5.20279 3.83106 5.44116 4.2314 5.33487L3.84648 3.8851ZM7.74994 11.5V9.74999H6.24994V11.5H7.74994ZM10.1544 3.8851C9.81536 3.79508 9.46603 3.74966 9.11525 3.74999L9.11663 5.24999C9.33701 5.24978 9.55648 5.27832 9.76948 5.33487L10.1544 3.8851ZM9.11594 3.74999H4.88494V5.24999H9.11594V3.74999ZM4.88563 3.74999C4.53485 3.74966 4.18552 3.79508 3.84648 3.8851L4.2314 5.33487C4.4444 5.27832 4.66387 5.24978 4.88425 5.24999L4.88563 3.74999Z" fill="#F8F7F0"/>
</svg>
