<svg width="18" height="18" viewBox="0 0 18 18" fill="none" xmlns="http://www.w3.org/2000/svg">
<g clip-path="url(#clip0_1259_4783)">
<path d="M8.607 11.25C8.40809 11.25 8.21732 11.329 8.07667 11.4697C7.93602 11.6103 7.857 11.8011 7.857 12V14.25C7.857 14.8467 7.61995 15.419 7.19799 15.841C6.77603 16.2629 6.20374 16.5 5.607 16.5H3.75C3.15326 16.5 2.58097 16.2629 2.15901 15.841C1.73705 15.419 1.5 14.8467 1.5 14.25V3.75C1.5 3.15326 1.73705 2.58097 2.15901 2.15901C2.58097 1.73705 3.15326 1.5 3.75 1.5H5.607C6.20374 1.5 6.77603 1.73705 7.19799 2.15901C7.61995 2.58097 7.857 3.15326 7.857 3.75V6C7.857 6.19891 7.93602 6.38968 8.07667 6.53033C8.21732 6.67098 8.40809 6.75 8.607 6.75C8.80591 6.75 8.99668 6.67098 9.13733 6.53033C9.27798 6.38968 9.357 6.19891 9.357 6V3.75C9.35581 2.7558 8.96034 1.80267 8.25734 1.09966C7.55433 0.396661 6.6012 0.00119089 5.607 0H3.75C2.7558 0.00119089 1.80267 0.396661 1.09967 1.09966C0.396662 1.80267 0.00119089 2.7558 0 3.75L0 14.25C0.00119089 15.2442 0.396662 16.1973 1.09967 16.9003C1.80267 17.6033 2.7558 17.9988 3.75 18H5.607C6.6012 17.9988 7.55433 17.6033 8.25734 16.9003C8.96034 16.1973 9.35581 15.2442 9.357 14.25V12C9.357 11.8011 9.27798 11.6103 9.13733 11.4697C8.99668 11.329 8.80591 11.25 8.607 11.25Z" fill="#242220" fill-opacity="0.56"/>
<path d="M17.1504 7.4094L13.7109 3.9699C13.6417 3.89827 13.5589 3.84113 13.4674 3.80183C13.3759 3.76252 13.2775 3.74183 13.1779 3.74096C13.0783 3.7401 12.9796 3.75908 12.8874 3.79679C12.7952 3.8345 12.7115 3.89019 12.6411 3.96061C12.5707 4.03103 12.515 4.11476 12.4773 4.20694C12.4395 4.29911 12.4206 4.39787 12.4214 4.49745C12.4223 4.59704 12.443 4.69545 12.4823 4.78696C12.5216 4.87846 12.5787 4.96122 12.6504 5.0304L15.8469 8.22765L4.50012 8.25015C4.30121 8.25015 4.11044 8.32917 3.96979 8.46982C3.82914 8.61048 3.75012 8.80124 3.75012 9.00015C3.75012 9.19907 3.82914 9.38983 3.96979 9.53048C4.11044 9.67113 4.30121 9.75015 4.50012 9.75015L15.8911 9.7269L12.6489 12.9699C12.5772 13.0391 12.5201 13.1218 12.4808 13.2134C12.4415 13.3049 12.4208 13.4033 12.4199 13.5029C12.4191 13.6024 12.438 13.7012 12.4758 13.7934C12.5135 13.8855 12.5692 13.9693 12.6396 14.0397C12.71 14.1101 12.7937 14.1658 12.8859 14.2035C12.9781 14.2412 13.0768 14.2602 13.1764 14.2593C13.276 14.2585 13.3744 14.2378 13.4659 14.1985C13.5574 14.1592 13.6402 14.102 13.7094 14.0304L17.1489 10.5909C17.5709 10.1692 17.8081 9.59708 17.8084 9.00046C17.8087 8.40384 17.572 7.83154 17.1504 7.4094Z" fill="#242220" fill-opacity="0.56"/>
</g>
<defs>
<clipPath id="clip0_1259_4783">
<rect width="18" height="18" fill="white"/>
</clipPath>
</defs>
</svg>
